<svg xmlns="http://www.w3.org/2000/svg" width="120" height="48" viewBox="0 0 120 48" fill="none" aria-hidden="true">
  <path d="M4 28c6-8 14-12 22-10 4 1 7 4 9 8-3-1-6-1-9 0-5 2-9 6-12 10-1 2-3 2-5-2-2-4-3-4-5-6z" fill="#111"/>
  <path d="M22 24c5-6 12-9 18-7 3 1 5 3 6 6-2-1-4-1-6 0-4 2-7 5-9 8-1 2-2 2-4-2-2-3-3-3-5-5z" fill="#111"/>
  <path d="M38 20c5-5 11-8 16-6 3 1 4 3 5 5-2-1-4 0-5 1-3 2-5 4-6 7-1 2-2 2-4-2-1-3-3-4-6-5z" fill="#111"/>
  <path d="M54 16c4-4 10-7 15-5 3 1 4 2 5 4-2 0-3 0-5 1-3 1-5 3-6 6-1 1-2 2-3 0-1-2-3-3-6-6z" fill="#111"/>
  <path d="M70 12c4-3 9-6 14-4 2 1 3 2 4 4-2 0-3 0-4 1-2 1-4 3-5 5-1 1-2 2-3 0-1-2-3-3-6-6z" fill="#111"/>
</svg>
